<?xml version="1.0" encoding="iso-8859-1"?>
<!-- Generator: Adobe Illustrator 19.0.0, SVG Export Plug-In . SVG Version: 6.00 Build 0)  -->
<svg version="1.1" id="Layer_1" xmlns="http://www.w3.org/2000/svg" xmlns:xlink="http://www.w3.org/1999/xlink" x="0px" y="0px"
	 viewBox="0 0 502 502" style="enable-background:new 0 0 502 502;" xml:space="preserve">
<g>
	<g>
		<polygon style="fill:#E6E6E6;" points="251,361.213 62.027,492 251,10 439.973,492 		"/>
		<path d="M439.973,502c-1.985,0-3.974-0.589-5.689-1.777L251,373.375L67.717,500.223c-3.618,2.504-8.447,2.349-11.896-0.381
			c-3.45-2.73-4.71-7.395-3.104-11.491l188.974-482C243.191,2.52,246.886,0,251,0s7.809,2.52,9.31,6.35l188.974,482
			c1.606,4.096,0.347,8.761-3.104,11.491C444.366,501.276,442.172,502,439.973,502z M251,351.213c1.989,0,3.979,0.592,5.69,1.777
			l161.999,112.117L251,37.396L83.311,465.108L245.31,352.991C247.021,351.806,249.011,351.213,251,351.213z"/>
	</g>
	<g>
		<path d="M238.973,146.002c-1.214,0-2.448-0.222-3.647-0.692c-5.142-2.016-7.676-7.818-5.659-12.96l8.625-21.999
			c2.016-5.142,7.814-7.676,12.96-5.66c5.142,2.016,7.676,7.818,5.659,12.96l-8.625,21.999
			C246.739,143.593,242.967,146.002,238.973,146.002z"/>
	</g>
	<g>
		<path d="M138.997,401.003c-1.214,0-2.448-0.222-3.647-0.692c-5.142-2.016-7.676-7.818-5.659-12.96l83.509-213
			c2.016-5.142,7.815-7.678,12.96-5.66c5.142,2.016,7.676,7.818,5.659,12.96l-83.509,213
			C146.765,398.594,142.991,401.003,138.997,401.003z"/>
	</g>
</g>
<g>
</g>
<g>
</g>
<g>
</g>
<g>
</g>
<g>
</g>
<g>
</g>
<g>
</g>
<g>
</g>
<g>
</g>
<g>
</g>
<g>
</g>
<g>
</g>
<g>
</g>
<g>
</g>
<g>
</g>
</svg>
